<svg xmlns="http://www.w3.org/2000/svg" width="10.971" height="13.317" viewBox="0 0 10.971 13.317">
    <path
        d="M6.03 1.2a2.219 2.219 0 0 1 3.789 1.574v.555H5.38v-.555A2.219 2.219 0 0 1 6.03 1.2zm-1.2 2.124h.55v1.947a.277.277 0 0 1-.555 0zm0 0H3.655a1.11 1.11 0 0 0-1.108 1.053l-.432 7.768a1.11 1.11 0 0 0 1.108 1.171h8.751a1.11 1.11 0 0 0 1.108-1.171l-.432-7.768a1.11 1.11 0 0 0-1.108-1.048h-1.17v-.555a2.774 2.774 0 0 0-5.549 0zm5.549 0v1.947a.277.277 0 1 1-.555 0V3.329z"
        transform="translate(-2.114)" style="fill:#fff;fill-rule:evenodd" />
</svg>